<?xml version="1.0" standalone="no"?>
<!DOCTYPE svg PUBLIC "-//W3C//DTD SVG 20010904//EN"
 "http://www.w3.org/TR/2001/REC-SVG-20010904/DTD/svg10.dtd">
<svg version="1.0" xmlns="http://www.w3.org/2000/svg"
 width="225.000000pt" height="225.000000pt" viewBox="0 0 225.000000 225.000000"
 preserveAspectRatio="xMidYMid meet">

<g transform="translate(0.000000,225.000000) scale(0.100000,-0.100000)"
fill="#000000" stroke="none">
<path d="M954 2201 c-120 -34 -213 -110 -264 -216 -34 -70 -50 -156 -50 -277
0 -49 -4 -88 -9 -88 -24 0 -41 -102 -29 -176 10 -63 54 -157 97 -206 15 -18
32 -44 36 -58 12 -38 55 -121 82 -156 l23 -31 -24 -16 c-27 -18 -166 -81 -332
-151 -176 -74 -227 -115 -298 -237 -59 -103 -114 -304 -104 -384 4 -38 39 -55
191 -94 218 -56 484 -81 868 -81 293 0 306 2 297 47 -3 17 -23 18 -298 19
-295 2 -424 10 -640 40 -112 16 -265 50 -324 73 -28 11 -28 12 -22 73 16 141
89 301 173 379 39 37 83 60 233 123 102 43 220 96 263 117 l77 39 39 -26 c109
-72 274 -70 371 6 l25 19 63 -35 c72 -41 107 -42 107 -4 0 20 -11 31 -50 52
-27 15 -54 29 -59 31 -5 2 8 25 29 52 21 28 53 84 72 125 41 89 47 101 94 171
20 30 44 76 54 103 33 85 20 224 -21 240 -11 4 -14 29 -14 111 0 110 -12 159
-49 200 -10 11 -21 33 -25 48 -17 71 -129 152 -244 176 -81 17 -266 13 -338
-8z m373 -72 c75 -23 137 -78 148 -130 4 -19 20 -49 36 -67 25 -28 29 -41 29
-90 0 -31 3 -94 7 -140 6 -77 8 -83 31 -89 24 -6 24 -8 19 -68 -5 -72 -41
-159 -91 -219 -18 -23 -39 -59 -46 -81 -27 -83 -74 -161 -134 -221 -79 -77
-130 -99 -224 -92 -133 10 -236 96 -292 246 -11 30 -36 73 -55 96 -86 106
-125 283 -65 299 19 5 20 13 20 129 0 137 15 214 56 283 50 86 147 147 260
165 81 12 225 2 301 -21z"/>
<path d="M1638 841 c-176 -70 -283 -238 -264 -415 18 -174 164 -327 339 -356
164 -26 343 71 420 229 29 60 31 75 31 161 0 76 -4 107 -23 153 -32 81 -115
168 -199 209 -59 29 -77 33 -162 35 -74 2 -105 -1 -142 -16z m193 -51 c104
-20 189 -83 237 -175 37 -73 42 -188 12 -269 -86 -227 -388 -286 -552 -108
-64 70 -83 122 -83 227 0 71 5 100 21 136 44 95 137 169 238 189 58 11 67 11
127 0z"/>
<path d="M1712 713 c-57 -28 -93 -99 -78 -157 8 -32 53 -86 83 -97 20 -7 23
-15 23 -64 l0 -55 -50 0 c-38 0 -52 -4 -57 -16 -11 -29 11 -49 60 -52 43 -3
46 -5 49 -35 3 -35 28 -47 53 -27 12 10 15 39 15 126 l0 113 30 16 c71 37 94
145 44 205 -50 59 -109 74 -172 43z m110 -70 c8 -10 18 -26 21 -36 7 -20 -9
-68 -26 -79 -21 -14 -80 -8 -99 9 -24 22 -24 77 2 103 25 25 81 27 102 3z"/>
</g>
</svg>
