<?xml version="1.0" standalone="no"?>
<!DOCTYPE svg PUBLIC "-//W3C//DTD SVG 20010904//EN"
 "http://www.w3.org/TR/2001/REC-SVG-20010904/DTD/svg10.dtd">
<svg version="1.0" xmlns="http://www.w3.org/2000/svg"
 width="1300.000000pt" height="1300.000000pt" viewBox="0 0 1300.000000 1300.000000"
 preserveAspectRatio="xMidYMid meet">

<g transform="translate(0.000000,1300.000000) scale(0.100000,-0.100000)"
fill="#000000" stroke="none">
<path d="M6090 11639 c-246 -18 -527 -64 -800 -131 -152 -37 -223 -59 -140
-45 33 6 34 6 15 -9 -12 -9 -30 -13 -45 -9 -19 4 -21 3 -10 -5 13 -9 13 -10 0
-10 -13 0 -13 -1 0 -10 8 -5 26 -9 40 -9 23 1 22 2 -5 8 l-30 7 27 7 c14 4 34
10 45 14 16 6 16 5 4 -10 -12 -15 -11 -17 8 -17 11 0 21 -3 21 -8 0 -4 10 -12
22 -17 12 -6 26 -19 32 -30 6 -11 15 -23 20 -26 5 -4 5 -13 0 -20 -4 -7 -9
-25 -10 -39 -1 -14 0 -19 3 -12 3 6 9 10 14 7 5 -3 4 -14 -3 -24 -14 -23 -5
-47 24 -61 l23 -11 -22 20 c-26 22 -29 43 -10 60 10 8 17 7 25 -1 9 -9 12 -9
12 2 0 8 -12 24 -26 35 -25 20 -25 21 -5 22 14 1 19 -2 14 -10 -4 -7 1 -5 12
3 16 14 17 13 11 -7 -4 -13 -1 -26 9 -36 8 -9 15 -20 15 -25 0 -6 5 -12 12
-14 7 -3 5 -7 -6 -11 -9 -4 -15 -3 -11 2 3 5 0 13 -6 17 -8 4 -9 3 -5 -4 11
-18 -5 -14 -27 6 -19 16 -20 16 -9 -4 6 -12 19 -25 29 -28 11 -5 13 -10 7 -14
-16 -11 11 -69 38 -82 23 -11 23 -11 -1 9 -14 13 -21 27 -17 37 5 13 11 10 35
-13 15 -15 25 -30 21 -33 -12 -9 19 -69 42 -80 23 -11 23 -11 -1 9 -15 14 -21
27 -16 38 6 17 7 16 23 -2 9 -11 26 -29 37 -40 11 -11 16 -17 11 -12 -17 12
-32 7 -16 -6 8 -7 15 -20 15 -31 0 -10 11 -25 25 -33 l25 -15 -24 21 c-14 13
-21 27 -17 37 5 13 11 10 35 -13 15 -15 25 -30 21 -33 -12 -9 19 -69 42 -80
23 -11 23 -11 -1 9 -15 14 -21 27 -16 38 6 17 7 16 23 -2 9 -11 26 -29 37 -40
11 -11 16 -17 11 -12 -17 12 -32 7 -16 -6 8 -7 15 -20 15 -31 0 -10 11 -25 25
-33 l25 -15 -24 21 c-15 14 -21 27 -16 38 6 17 7 17 19 1 7 -9 23 -26 37 -37
19 -17 20 -20 5 -14 -14 4 -17 3 -12 -6 4 -6 13 -10 20 -9 7 2 38 -22 70 -53
31 -31 56 -52 56 -46 0 5 -18 27 -40 48 -38 37 -57 65 -24 39 18 -16 67 -23
59 -9 -10 15 2 10 16 -8 10 -11 10 -14 2 -9 -23 13 -13 -10 13 -33 l26 -23
202 16 c234 19 395 20 608 6 570 -39 1145 -198 1628 -448 117 -61 132 -71 125
-82 -3 -5 4 -6 15 -3 11 3 20 0 20 -6 0 -6 3 -10 8 -9 4 1 21 -6 37 -15 17
-10 22 -15 10 -12 -19 4 -20 1 -17 -36 3 -26 0 -44 -8 -49 -8 -5 -3 -10 15
-14 14 -4 30 -4 35 -1 6 4 10 2 10 -4 0 -19 -39 -22 -67 -5 l-28 17 21 -22
c12 -13 33 -24 48 -24 14 -1 26 -5 26 -9 0 -16 -38 -7 -81 20 -24 16 -75 44
-114 63 -38 20 -106 54 -150 77 -176 91 -486 206 -742 276 -158 43 -344 78
-580 110 -16 2 -48 -24 -124 -101 -56 -56 -98 -103 -92 -103 5 0 18 -7 29 -16
10 -8 14 -13 7 -10 -6 4 -14 2 -18 -4 -3 -5 -16 -8 -28 -6 -12 2 -28 -1 -35
-7 -7 -5 -15 -7 -18 -4 -4 3 51 62 122 130 l128 125 -79 8 c-103 11 -639 12
-729 1 l-69 -9 104 -104 c60 -61 106 -99 110 -93 5 8 8 8 13 0 4 -6 2 -11 -5
-11 -7 0 -2 -11 11 -25 12 -13 26 -23 29 -20 4 2 13 0 20 -4 10 -6 9 -10 -3
-14 -10 -4 -57 37 -152 133 -153 156 -120 142 -279 119 -315 -46 -661 -138
-922 -245 -48 -20 -109 -45 -135 -55 -57 -22 -388 -187 -405 -201 -9 -7 -13
-7 -13 1 0 6 -7 11 -15 11 -18 0 -20 -17 -3 -22 7 -3 5 -7 -6 -11 -9 -4 -15
-3 -11 2 3 5 -1 12 -7 15 -10 5 -10 7 0 12 10 4 10 9 1 20 -8 10 -4 10 20 -2
27 -14 33 -13 58 1 24 13 24 15 5 9 -23 -6 -23 -4 -21 41 3 50 -11 69 -45 59
-19 -6 -179 -101 -229 -136 -15 -11 -24 -24 -21 -30 4 -7 2 -8 -4 -4 -18 11
-101 -48 -399 -284 -79 -62 -374 -358 -463 -464 -472 -564 -786 -1201 -920
-1871 -18 -88 -37 -166 -42 -172 -6 -7 -7 -24 -4 -37 3 -13 2 -35 -3 -48 -6
-13 -10 -16 -10 -8 -1 8 -10 21 -21 28 -12 7 -25 23 -30 37 -5 13 -21 29 -36
37 -15 7 -35 26 -43 41 -9 15 -27 33 -40 40 -14 7 -32 25 -40 40 -9 15 -27 33
-40 40 -14 7 -32 25 -40 40 -9 15 -27 33 -40 40 -14 7 -32 25 -40 40 -9 15
-27 33 -40 40 -14 7 -32 25 -40 40 -9 15 -27 33 -40 40 -14 7 -32 25 -40 40
-9 15 -27 33 -40 40 -14 7 -32 25 -40 40 -9 15 -27 33 -41 40 -13 7 -29 21
-35 32 -21 41 -27 48 -35 36 -3 -7 -14 -9 -22 -6 -12 5 -14 17 -11 53 3 35 2
43 -6 32 -9 -12 -11 -13 -11 -1 0 28 -10 4 -34 -87 -15 -57 -20 -90 -13 -85 9
5 9 3 0 -8 -25 -30 -86 -327 -117 -569 -56 -425 -47 -1035 19 -1449 135 -836
452 -1595 949 -2269 156 -213 498 -598 518 -586 6 4 8 2 4 -4 -6 -11 139 -149
309 -293 771 -653 1769 -1075 2785 -1179 173 -18 698 -24 897 -11 274 19 705
85 686 105 -4 5 1 6 12 3 26 -7 219 36 208 47 -4 4 6 5 22 2 28 -6 28 -5 -5 8
-19 8 -27 15 -18 15 9 1 25 4 35 7 15 5 15 4 3 -5 -9 -6 -10 -11 -3 -11 6 0
20 -3 30 -6 13 -4 15 -3 5 4 -11 7 -8 11 13 16 14 4 30 4 36 1 13 -9 49 4 49
17 0 7 -5 7 -14 -1 -10 -8 -20 -8 -37 -1 -49 21 -84 47 -96 71 -7 13 -25 31
-40 40 -15 8 -33 26 -40 40 -7 13 -25 31 -40 40 -15 8 -33 26 -40 40 -7 13
-25 31 -40 40 -15 8 -33 26 -40 40 -7 13 -25 31 -40 40 -15 8 -33 26 -40 40
-7 13 -25 31 -40 40 -15 8 -33 26 -40 40 -7 13 -25 31 -40 40 -15 8 -33 26
-40 40 -7 13 -25 31 -40 40 -15 8 -34 28 -41 43 -8 15 -24 31 -37 36 -13 5
-31 21 -41 35 -14 21 -24 25 -68 26 l-51 1 40 8 c22 4 43 6 46 4 14 -8 88 -21
84 -14 -3 4 -22 11 -42 15 -35 7 -36 8 -15 16 30 12 28 19 -7 16 -16 -1 -27
-6 -24 -11 3 -4 -14 -6 -38 -2 -33 4 -38 3 -19 -4 18 -6 5 -8 -45 -5 -40 2
-61 0 -50 -4 12 -5 -7 -8 -50 -7 -38 0 -162 -3 -275 -8 -467 -20 -965 51
-1439 206 -248 81 -567 220 -554 241 3 6 1 7 -5 3 -7 -4 -56 16 -109 45 -117
62 -144 79 -122 79 8 0 26 -8 39 -17 36 -26 93 -53 98 -48 2 2 -13 12 -34 22
-21 10 -46 26 -56 35 -17 17 -42 23 -78 19 -12 -2 -13 0 -1 7 7 5 9 12 5 14
-5 3 -3 3 4 1 8 -2 25 -6 38 -9 15 -4 24 -2 24 5 0 6 -7 11 -16 11 -14 0 -16
9 -12 53 4 44 1 55 -13 63 -10 5 -61 41 -115 79 -146 106 -174 125 -179 125
-3 0 -14 8 -24 17 -10 10 -37 31 -59 47 -27 19 -39 34 -35 45 4 14 3 14 -6 1
-8 -12 -15 -10 -40 14 -17 16 -29 34 -28 40 1 6 -5 10 -14 8 -8 -1 -64 44
-124 100 -59 57 -112 102 -116 101 -5 -2 -6 5 -2 15 3 9 -82 -68 -188 -173
l-194 -190 188 191 c103 104 187 193 187 197 0 3 -6 4 -14 1 -7 -3 -26 9 -41
28 -15 18 -63 71 -106 118 -44 46 -79 89 -79 95 0 5 5 3 10 -5 5 -8 10 -10 10
-4 0 7 -8 20 -17 31 -10 10 -14 13 -9 6 5 -8 6 -17 2 -21 -4 -4 -12 1 -17 11
-6 9 -20 27 -33 40 -41 40 -106 134 -103 148 2 8 2 11 0 7 -10 -18 -24 -6 -18
15 4 14 3 17 -2 9 -7 -9 -15 -4 -32 18 -12 17 -21 36 -19 43 2 6 0 12 -3 12
-18 0 -39 30 -34 49 5 15 4 17 -3 7 -12 -17 -27 3 -16 22 4 6 4 9 -1 5 -12
-12 -36 28 -29 49 4 13 3 14 -4 5 -7 -10 -13 -7 -25 12 -10 14 -17 28 -17 32
0 3 -9 17 -20 31 -11 14 -17 30 -13 36 3 5 1 7 -5 3 -12 -7 -27 29 -17 43 3 5
1 12 -5 16 -5 3 -10 0 -10 -7 0 -7 -9 1 -20 17 -11 17 -17 39 -14 50 4 15 3
16 -4 6 -8 -11 -12 -9 -18 10 -4 13 -7 30 -5 38 1 7 -2 10 -8 6 -7 -4 -8 0 -4
11 4 11 2 15 -4 11 -6 -4 -17 8 -24 26 -14 33 -16 39 -18 72 -1 15 -3 17 -10
6 -11 -17 -63 92 -63 131 0 15 -3 30 -9 33 -5 3 -6 -2 -3 -12 5 -17 5 -17 -6
-1 -8 13 -8 24 1 40 11 20 11 22 -3 10 -14 -11 -18 -6 -33 37 -9 28 -14 55
-10 61 3 5 -1 10 -9 10 -16 0 -20 10 -17 42 1 10 -2 18 -7 18 -10 0 -16 13
-38 90 -7 25 -22 72 -34 105 -11 33 -19 68 -16 78 2 10 0 14 -7 10 -7 -4 -8 0
-3 13 5 10 10 28 13 39 3 16 1 15 -12 -5 -15 -23 -15 -24 -10 -2 4 14 2 22 -6
22 -7 0 -9 3 -6 7 4 3 3 11 -2 17 -15 19 -39 149 -35 186 3 25 2 30 -4 15 -7
-15 -10 -7 -16 35 -4 30 -7 75 -7 100 0 36 -2 41 -10 25 -7 -15 -8 -5 -4 35 3
40 2 50 -6 35 -8 -17 -8 -15 -4 8 3 16 1 35 -6 43 -6 7 -9 20 -6 28 3 8 3 17
-1 21 -4 4 -7 28 -8 53 -1 26 -5 76 -9 111 -8 61 -7 64 11 57 10 -5 49 -18 85
-31 l67 -23 46 47 47 48 -8 114 c-5 63 -8 149 -8 191 0 42 -3 74 -8 71 -5 -3
-4 3 2 13 11 22 32 271 25 306 -4 20 -3 20 4 3 7 -14 11 -1 17 50 4 39 8 85 8
102 0 18 3 30 6 27 7 -7 44 174 43 216 -1 28 1 31 8 15 8 -19 9 -19 9 -1 1 10
11 35 23 54 14 22 16 32 7 27 -12 -8 -12 -6 0 8 7 9 15 38 17 63 3 52 11 65
24 44 8 -13 10 -12 10 2 0 31 -18 29 -44 -4 l-26 -33 9 30 c25 85 113 340 136
390 13 31 22 62 18 69 -3 6 -3 8 2 4 10 -10 67 101 61 119 -4 9 -1 11 6 7 8
-5 9 -2 5 10 -4 9 -3 15 1 12 4 -2 14 9 21 26 8 17 29 53 47 81 19 29 34 55
34 60 0 4 18 35 41 69 22 33 38 67 35 74 -3 8 0 11 10 7 8 -3 14 -2 12 3 -2 5
9 25 25 45 15 20 27 41 27 47 0 7 5 12 10 12 6 0 10 6 10 14 0 8 4 16 9 18 5
2 37 41 72 88 35 47 68 90 74 96 5 6 42 46 80 90 39 43 115 123 170 178 55 55
99 104 97 109 -1 4 2 6 7 3 5 -3 14 1 21 9 11 13 10 14 -6 9 -15 -5 -16 -4 -4
4 8 6 18 8 22 6 12 -7 40 24 33 36 -4 6 1 7 11 3 13 -5 16 -3 11 10 -4 12 -2
14 10 10 12 -5 14 -3 8 7 -6 10 -4 12 7 7 19 -7 47 22 41 43 -4 13 -3 13 6 0
8 -12 14 -11 38 10 46 41 49 43 35 36 -10 -6 -10 -2 0 18 6 14 18 26 27 26 13
-1 12 -3 -3 -15 -23 -17 -14 -20 15 -4 17 9 18 13 7 26 -11 14 -10 15 9 9 13
-4 31 -2 40 4 17 11 17 11 1 6 -10 -3 -18 -1 -18 4 0 6 7 10 16 10 9 0 36 14
61 30 24 17 48 30 53 30 5 0 7 6 4 14 -7 19 39 46 67 39 l24 -6 -23 19 -23 19
31 1 c19 1 39 11 55 28 25 27 40 32 50 16 7 -11 35 -2 35 12 0 6 -6 5 -15 -2
-8 -7 -15 -9 -15 -4 1 11 60 49 89 59 12 3 21 11 21 17 0 5 -7 7 -16 4 -14 -6
-15 -4 -4 9 7 9 16 12 19 7 3 -5 16 -11 28 -14 15 -4 20 -2 16 8 -2 7 -12 15
-21 17 -16 4 -16 5 0 6 9 0 19 -3 22 -8 3 -5 15 -7 27 -4 16 4 17 8 7 14 -10
7 -10 9 0 9 7 0 34 10 60 21 41 19 45 23 27 30 -15 7 -11 7 11 3 20 -3 37 0
46 9 8 8 25 18 38 22 14 4 27 10 30 14 9 10 80 41 96 41 8 0 17 7 20 15 3 8
16 17 27 21 75 22 225 78 238 90 9 8 18 12 20 9 3 -2 21 0 40 6 57 17 142 41
184 51 22 5 42 14 46 19 3 6 26 12 51 13 25 2 62 9 82 16 21 7 54 14 74 16 21
2 63 8 96 13 32 5 64 7 71 5 8 -3 24 0 37 7 13 8 32 14 43 15 18 2 102 11 165
18 14 2 35 4 47 4 16 2 21 7 17 17 -5 12 -2 14 12 8 17 -6 18 -5 5 13 -8 10 8
-3 35 -31 27 -27 48 -52 47 -56 -1 -3 5 -6 13 -6 8 0 14 4 14 8 0 4 9 11 21
14 20 7 20 8 3 26 -16 18 -16 19 -1 13 10 -3 17 -1 17 5 0 9 38 11 132 10 89
-1 133 2 136 10 2 6 8 11 14 11 7 0 7 -5 -1 -13 -6 -8 -9 -16 -6 -19 3 -2 -19
-3 -48 0 -28 2 -49 1 -46 -2 3 -3 24 -7 47 -8 31 -1 39 -4 32 -13 -18 -22 2
-24 30 -3 26 19 37 20 132 14 57 -4 131 -9 165 -10 35 -2 71 -10 84 -20 13 -9
37 -16 54 -16 16 0 57 -7 90 -14 40 -10 62 -11 66 -4 4 6 13 7 25 0 11 -5 60
-22 109 -37 50 -15 100 -32 113 -36 13 -5 34 -9 47 -9 13 0 26 -4 29 -9 4 -5
25 -12 48 -16 24 -4 53 -14 65 -22 12 -8 31 -12 42 -8 13 4 26 -1 40 -16 12
-13 26 -19 36 -15 9 3 29 -3 45 -15 15 -12 33 -19 38 -15 6 3 13 2 17 -4 8
-13 72 -40 96 -40 11 0 19 -4 19 -10 0 -5 9 -10 19 -10 11 0 27 -7 35 -16 9
-8 36 -22 61 -30 25 -9 45 -20 45 -25 0 -5 8 -9 18 -9 11 0 29 -9 42 -20 13
-11 29 -20 37 -20 7 0 13 -4 13 -8 0 -4 38 -25 85 -46 46 -22 82 -43 79 -48
-3 -4 12 -16 33 -25 36 -17 60 -33 88 -60 8 -7 18 -13 24 -13 6 0 11 -4 11 -9
0 -5 11 -12 24 -15 13 -3 44 -22 67 -42 24 -20 53 -41 64 -46 12 -5 25 -19 30
-30 6 -11 30 -31 55 -44 25 -13 45 -30 45 -36 0 -7 19 -23 43 -36 23 -13 42
-29 42 -37 0 -7 20 -25 44 -39 24 -14 46 -33 50 -41 3 -9 10 -13 16 -10 6 4 7
-1 3 -11 -5 -14 -3 -15 15 -5 25 13 30 0 7 -19 -8 -7 -14 -24 -14 -39 1 -20 2
-22 6 -6 5 21 30 45 47 45 7 0 7 -3 0 -8 -6 -4 -14 -18 -18 -32 -4 -14 -4 -20
1 -15 5 6 141 140 303 300 l295 290 -287 -290 c-169 -172 -288 -300 -292 -315
-3 -14 -3 -19 0 -12 3 6 11 12 17 12 19 0 152 -142 168 -177 8 -19 21 -33 31
-33 9 0 20 -9 23 -20 4 -12 27 -42 52 -67 24 -26 45 -55 46 -66 1 -11 18 -37
39 -57 21 -20 38 -42 38 -48 0 -6 10 -22 23 -35 41 -43 67 -81 67 -100 0 -26
18 -57 34 -57 8 0 17 -11 20 -24 3 -14 13 -31 21 -40 9 -8 28 -45 44 -82 16
-37 31 -60 33 -53 3 8 8 -2 13 -21 4 -19 19 -53 34 -75 15 -22 33 -61 40 -88
8 -26 17 -47 21 -47 5 0 16 -26 26 -57 13 -40 20 -52 23 -38 2 11 10 -10 17
-48 7 -37 20 -74 28 -83 9 -8 16 -24 16 -34 0 -10 4 -21 9 -24 5 -3 11 -20 14
-38 13 -77 28 -133 37 -136 6 -2 10 -13 10 -24 0 -31 22 -101 37 -116 8 -8 13
-38 13 -74 0 -33 6 -74 14 -91 17 -40 36 -148 37 -213 0 -37 3 -44 9 -29 11
25 12 18 15 -85 1 -47 8 -142 14 -212 13 -127 11 -150 -12 -144 -7 1 -9 1 -4
-1 4 -3 5 -8 3 -11 -2 -4 7 -8 21 -9 19 -1 22 1 12 8 -13 8 -4 12 17 8 4 -1
63 54 132 122 70 68 124 121 122 117 -25 -36 -275 -275 -285 -272 -7 3 -15 -2
-19 -11 -3 -9 -2 -13 4 -10 16 10 11 -11 -5 -25 -9 -7 -13 -15 -10 -18 3 -3
21 12 41 34 20 21 31 32 25 23 -6 -9 -7 -20 -3 -24 4 -5 1 -5 -5 -1 -9 5 -13
0 -13 -13 0 -11 -4 -23 -10 -26 -5 -3 -10 -11 -10 -17 0 -6 6 -6 15 2 9 7 18
11 20 8 3 -3 -1 -11 -9 -17 -13 -11 -13 -16 1 -38 17 -26 17 -26 -5 -14 -22
11 -33 -1 -12 -14 6 -3 10 -15 10 -27 0 -18 2 -19 18 -7 15 12 16 12 5 -2 -7
-8 -9 -20 -5 -25 4 -6 -8 6 -26 25 -17 19 -34 32 -37 29 -3 -3 1 -11 10 -18
16 -14 21 -35 5 -25 -6 3 -7 -1 -4 -10 4 -8 13 -14 20 -13 8 2 41 -23 73 -56
l59 -59 67 21 66 20 -3 -42 c-2 -26 -7 -40 -15 -38 -7 1 -13 -2 -13 -7 0 -5 6
-11 13 -14 9 -3 9 -9 -1 -27 -8 -12 -10 -20 -5 -17 5 3 13 -6 20 -19 6 -13 7
-21 2 -18 -5 3 -12 -2 -15 -11 -6 -13 -8 -14 -15 -3 -13 21 -11 28 9 21 15 -5
15 -4 2 8 -8 8 -19 21 -26 29 -18 22 -10 -29 11 -70 11 -21 14 -41 9 -59 l-7
-26 -7 25 c-6 18 -8 20 -9 7 -1 -10 4 -27 9 -37 13 -24 2 -72 -14 -63 -6 3 -6
1 2 -8 6 -7 12 -20 12 -28 0 -14 -2 -14 -11 -1 -7 11 -9 7 -8 -20 0 -19 0 -39
-1 -45 -1 -5 -2 -14 -1 -19 1 -5 -1 -16 -5 -25 -4 -9 -6 -27 -6 -41 2 -23 1
-23 -8 -5 -8 16 -9 13 -6 -15 6 -39 -29 -197 -36 -165 -3 17 -5 16 -10 -7 -3
-17 -1 -25 5 -21 6 4 8 0 5 -8 -3 -8 -11 -38 -18 -67 -9 -35 -17 -48 -23 -40
-5 8 -6 1 -3 -17 3 -16 1 -37 -5 -45 -9 -13 -10 -12 -5 3 4 11 2 16 -5 11 -6
-3 -8 -17 -4 -31 4 -17 2 -23 -6 -18 -8 5 -9 1 -4 -15 4 -14 3 -20 -2 -17 -6
4 -8 -4 -5 -20 4 -20 2 -24 -8 -18 -10 6 -12 2 -7 -14 8 -30 -13 -77 -26 -59
-5 8 -6 3 -2 -15 3 -17 2 -26 -3 -23 -5 3 -9 -5 -9 -18 0 -14 -9 -37 -20 -53
-11 -15 -20 -39 -21 -52 0 -13 -7 -31 -15 -40 -8 -9 -12 -22 -9 -30 3 -9 0
-11 -8 -6 -9 5 -11 4 -6 -3 8 -13 -17 -55 -27 -47 -4 3 -3 0 2 -6 5 -6 7 -18
4 -26 -5 -12 -7 -12 -15 -1 -7 10 -8 9 -4 -5 7 -22 -63 -169 -77 -160 -6 3 -7
1 -3 -5 9 -15 -35 -103 -47 -95 -6 4 -8 -1 -4 -13 7 -18 6 -18 -9 1 -16 19
-16 19 -11 -10 5 -28 -22 -84 -45 -93 -5 -2 -6 -8 -2 -13 3 -5 0 -9 -7 -9 -7
0 -9 -3 -6 -6 9 -9 -12 -46 -22 -40 -4 3 -8 0 -8 -7 0 -15 -51 -105 -64 -113
-5 -3 -6 3 -3 13 5 15 4 15 -4 3 -6 -8 -8 -18 -6 -22 3 -4 0 -13 -6 -20 -6 -7
-20 -28 -31 -47 -17 -27 -23 -31 -31 -20 -7 11 -8 9 -4 -7 4 -12 -1 -28 -12
-40 -9 -10 -40 -48 -67 -84 -27 -36 -64 -80 -82 -98 -18 -18 -33 -38 -33 -44
0 -5 -6 -8 -14 -5 -7 3 -13 0 -12 -7 0 -7 -21 -39 -49 -72 -74 -87 -85 -96
-102 -90 -13 5 -14 4 -4 -8 10 -12 9 -17 -8 -28 -12 -7 -21 -17 -21 -23 0 -5
24 -34 53 -65 l52 -55 -57 55 -58 54 -32 -29 c-17 -17 -41 -39 -52 -50 -67
-66 -131 -115 -142 -111 -8 3 -11 0 -8 -8 3 -7 -7 -19 -24 -27 -16 -8 -28 -18
-28 -24 1 -5 -46 -44 -104 -88 -58 -43 -106 -83 -108 -88 -2 -5 -9 -9 -15 -9
-7 0 -28 -14 -47 -30 -19 -16 -41 -30 -47 -30 -7 0 -18 -9 -25 -20 -7 -11 -21
-20 -30 -20 -10 0 -22 -9 -28 -20 -6 -11 -21 -22 -34 -26 -24 -6 -74 -54 -56
-54 6 0 10 -17 10 -38 0 -35 3 -39 36 -51 27 -10 39 -10 47 -1 9 8 7 10 -8 5
-16 -5 -17 -5 -5 3 8 6 18 8 22 5 5 -2 15 1 23 7 8 7 15 10 15 6 0 -4 11 1 25
10 14 9 22 21 18 27 -3 6 -1 7 6 3 14 -9 43 12 36 24 -3 5 0 12 6 16 8 4 9 3
5 -4 -13 -22 8 -12 83 40 745 512 1316 1277 1602 2148 31 96 69 225 83 285 14
61 30 126 35 145 6 19 15 71 22 115 12 77 13 79 25 50 8 -18 13 -23 14 -12 0
25 20 21 20 -5 0 -12 3 -19 6 -15 4 3 3 18 0 32 -5 21 -10 24 -21 15 -10 -9
-14 -5 -18 17 -3 15 -4 39 -2 53 2 14 4 29 4 33 1 5 7 5 14 1 6 -4 1 6 -13 22
-14 16 -18 23 -10 17 23 -21 27 -16 23 30 -2 39 -1 41 12 23 10 -13 15 -15 15
-6 0 7 3 10 7 7 3 -4 -1 -15 -11 -26 -20 -21 -11 -55 23 -85 21 -19 30 -42 11
-31 -6 4 -7 -1 -3 -12 8 -23 -7 -10 -21 18 -6 12 -18 23 -27 25 -13 1 -14 -2
-5 -22 10 -20 12 -21 18 -6 6 15 7 14 9 -3 1 -11 2 -29 3 -40 1 -16 8 -20 38
-20 49 0 75 -24 58 -55 -6 -12 -9 -24 -6 -28 3 -3 6 0 6 8 0 9 4 9 13 2 8 -7
16 -6 24 3 7 8 9 16 4 20 -5 3 -11 -1 -14 -7 -2 -8 -8 -9 -13 -4 -5 5 -4 11 4
13 10 4 10 8 0 21 -7 9 7 0 31 -20 24 -21 48 -35 53 -32 11 7 0 24 -16 24 -15
0 -66 52 -66 68 0 7 -6 12 -13 12 -16 0 -57 42 -57 58 0 7 -12 17 -26 22 -17
7 -24 15 -20 25 3 8 1 15 -5 15 -6 0 -7 5 -3 11 9 15 24 -9 17 -27 -3 -7 5
-14 18 -16 15 -2 25 -12 29 -28 6 -23 7 -24 17 -6 9 16 11 16 16 2 4 -9 15
-16 25 -16 11 0 26 -8 33 -17 11 -15 11 -16 -1 -5 -8 6 -24 12 -37 12 -13 0
-23 5 -23 11 0 5 -5 7 -10 4 -15 -10 5 -32 35 -39 15 -4 25 -14 25 -25 0 -15
39 -63 44 -53 5 12 36 -14 36 -32 1 -21 1 -21 15 -2 8 11 15 15 15 10 0 -6 -5
-15 -10 -20 -8 -8 -6 -15 6 -25 9 -8 18 -13 18 -11 1 2 9 0 19 -3 9 -4 17 -17
17 -29 1 -20 1 -20 14 -3 13 17 14 16 19 -2 4 -15 1 -18 -12 -14 -13 5 -14 4
-3 -8 7 -8 16 -14 20 -15 24 -3 42 -19 42 -38 1 -21 1 -21 15 -2 8 11 15 15
15 10 0 -6 -5 -15 -10 -20 -13 -13 4 -30 35 -35 11 -3 22 -15 25 -29 6 -23 7
-24 17 -6 9 16 11 16 16 2 4 -9 15 -16 25 -16 11 0 26 -8 33 -17 11 -15 11
-16 -1 -5 -8 6 -24 12 -37 12 -13 0 -23 5 -23 11 0 5 -5 7 -10 4 -15 -9 5 -32
34 -39 28 -7 40 -44 26 -81 -13 -33 -13 -44 0 -25 9 13 11 13 20 0 7 -11 8 -5
6 20 -2 19 -1 26 1 16 5 -21 18 -35 48 -52 10 -6 23 -19 29 -29 15 -27 33 -45
44 -45 16 0 42 -36 43 -61 0 -18 4 -14 13 16 11 38 12 39 20 15 l7 -25 10 30
c5 19 5 41 -1 59 -14 40 -11 57 4 23 11 -26 15 -15 49 145 76 355 106 656 107
1056 0 437 -34 759 -122 1147 -121 538 -361 1127 -629 1546 -27 42 -49 79 -49
82 0 6 -151 224 -226 325 -252 343 -702 790 -1056 1048 -787 575 -1681 913
-2616 989 -198 16 -664 18 -862 4z m-703 -145 c-3 -3 -12 -4 -19 -1 -8 3 -5 6
6 6 11 1 17 -2 13 -5z m-69 -220 c-4 -3 -12 5 -18 18 -12 22 -12 22 6 6 10
-10 15 -20 12 -24z m113 -51 c10 -11 10 -14 2 -9 -7 4 -13 3 -13 -3 0 -5 -9
-13 -20 -16 -11 -4 -18 -10 -15 -15 3 -5 1 -11 -4 -14 -5 -4 -8 2 -6 11 2 10
4 21 4 25 1 4 10 10 21 13 11 4 18 11 15 16 -10 15 2 10 16 -8z m29 -60 c0 -7
6 -13 13 -13 8 0 7 -4 -3 -10 -17 -11 -10 -13 14 -4 9 3 13 11 9 18 -4 6 1 5
10 -3 18 -15 23 -26 7 -16 -5 3 -10 2 -10 -4 0 -5 -9 -13 -20 -16 -11 -4 -18
-10 -15 -15 3 -5 1 -11 -4 -15 -6 -3 -8 5 -5 19 3 18 -2 28 -16 36 -11 6 -25
20 -31 33 -11 20 -11 21 5 8 14 -12 16 -12 10 4 -6 15 -5 16 15 4 11 -8 21
-19 21 -26z m2130 4 c0 -2 -15 -16 -32 -33 l-33 -29 29 33 c28 30 36 37 36 29z
m-2050 -79 c0 -5 -5 -8 -12 -8 -21 0 1 -13 27 -16 17 -2 23 1 18 9 -4 7 0 6
10 -2 18 -15 23 -26 7 -16 -5 3 -10 1 -10 -4 0 -6 9 -16 20 -23 11 -7 20 -18
20 -25 0 -7 6 -13 13 -13 8 0 7 -4 -3 -10 -17 -11 -10 -13 14 -4 9 3 13 11 9
18 -4 6 1 5 10 -3 18 -15 23 -26 7 -16 -5 3 -10 2 -10 -4 0 -5 -9 -13 -20 -16
-11 -4 -18 -10 -15 -15 3 -5 1 -11 -4 -15 -6 -3 -8 4 -6 16 3 16 -13 39 -65
90 -39 38 -70 72 -70 75 0 4 7 1 15 -6 13 -11 14 -10 9 5 -6 15 -5 16 15 4 11
-8 21 -17 21 -21z m1910 -63 c-41 -41 -77 -75 -79 -75 -3 0 28 34 69 75 41 41
77 75 79 75 3 0 -28 -34 -69 -75z m-1750 -97 c0 -5 -5 -8 -12 -8 -21 0 1 -13
27 -16 17 -2 23 1 18 9 -4 7 0 6 10 -2 18 -15 23 -26 7 -16 -19 12 -10 -14 10
-28 14 -9 18 -21 14 -33 -5 -15 -4 -16 5 -4 5 8 14 11 18 6 4 -5 2 -11 -5 -13
-6 -3 -10 -9 -7 -14 4 -5 12 -3 19 4 8 6 12 15 9 20 -2 4 0 7 5 7 6 0 13 -7
16 -16 3 -8 2 -13 -2 -11 -4 3 -13 -1 -19 -9 -7 -7 -9 -15 -4 -19 5 -3 11 0
13 7 3 9 10 8 22 -5 21 -20 14 -36 -7 -19 -8 7 -16 10 -19 7 -5 -5 -178 160
-178 171 0 3 7 1 15 -6 13 -11 14 -10 9 5 -6 15 -5 16 15 4 11 -8 21 -17 21
-21z m1660 9 c0 -1 -62 -63 -137 -137 l-138 -135 135 138 c125 127 140 142
140 134z m-1297 -224 c-7 -2 -19 -2 -25 0 -7 3 -2 5 12 5 14 0 19 -2 13 -5z
m627 -447 c0 -2 -8 -10 -17 -17 -16 -13 -17 -12 -4 4 13 16 21 21 21 13z
m-310 -15 c0 -11 -31 -24 -39 -16 -3 3 1 10 9 15 19 12 30 12 30 1z m-1942
-169 c2 -23 -1 -42 -6 -42 -6 0 -12 20 -14 45 -2 27 1 44 7 42 5 -2 11 -22 13
-45z m-58 -2 c8 -5 11 -12 7 -17 -5 -4 -11 -3 -15 3 -4 6 -14 14 -22 17 -13 5
-13 5 0 6 8 0 22 -3 30 -9z m4290 -22 c0 -6 -6 -5 -15 2 -8 7 -15 14 -15 16 0
2 7 1 15 -2 8 -4 15 -11 15 -16z m-4325 2 c3 -6 -1 -7 -9 -4 -18 7 -21 14 -7
14 6 0 13 -4 16 -10z m5735 -14 c0 -2 -8 -10 -17 -17 -16 -13 -17 -12 -4 4 13
16 21 21 21 13z m-80 -80 c0 -2 -8 -10 -17 -17 -16 -13 -17 -12 -4 4 13 16 21
21 21 13z m-1316 -31 c11 -8 16 -15 10 -15 -5 0 -18 7 -28 15 -11 8 -16 15
-10 15 5 0 18 -7 28 -15z m1236 -49 c0 -2 -8 -10 -17 -17 -16 -13 -17 -12 -4
4 13 16 21 21 21 13z m-80 -79 c0 -2 -17 -19 -37 -38 l-38 -34 34 38 c33 34
41 42 41 34z m-6017 -606 c3 9 6 10 6 2 2 -33 -27 -10 -160 125 l-144 147 146
-144 c96 -94 148 -139 152 -130z m221 185 c-10 -8 -21 -12 -24 -10 -5 6 21 24
34 24 6 0 1 -6 -10 -14z m5186 -160 c0 -2 -8 -10 -17 -17 -16 -13 -17 -12 -4
4 13 16 21 21 21 13z m30 -29 c0 -2 -10 -12 -22 -23 l-23 -19 19 23 c18 21 26
27 26 19z m-5642 -211 c-7 -8 -15 -12 -17 -11 -5 6 10 25 20 25 5 0 4 -6 -3
-14z m-2063 -1128 c-4 -13 -12 -27 -18 -33 -7 -7 -8 -4 -3 8 3 10 6 25 6 33 0
8 5 14 11 14 6 0 8 -9 4 -22z m186 -235 c11 -15 11 -16 -1 -5 -23 20 -35 14
-15 -8 10 -11 22 -17 26 -14 5 3 6 -2 3 -10 -3 -9 -10 -14 -14 -11 -5 3 -11 1
-14 -3 -7 -11 50 -63 59 -54 3 3 -4 14 -16 22 -16 13 -18 17 -5 17 9 0 16 -4
16 -8 0 -5 11 -4 25 1 27 10 43 -3 26 -23 -14 -18 -33 -69 -22 -63 4 3 16 -3
26 -14 10 -11 22 -17 27 -14 6 4 -2 16 -18 29 -21 16 -24 24 -14 30 8 5 11 4
6 -3 -4 -6 4 -16 16 -23 13 -7 26 -17 30 -23 4 -6 10 -7 14 -3 4 3 1 13 -5 21
-10 12 -9 14 6 12 12 -2 18 -13 20 -32 1 -16 -1 -23 -5 -17 -6 9 -11 7 -19 -6
-10 -16 -7 -23 17 -44 15 -14 31 -23 34 -19 4 3 -4 15 -17 26 -12 12 -18 18
-12 14 7 -4 15 -5 18 -1 4 3 7 1 7 -5 0 -8 7 -9 25 -2 27 10 43 -3 26 -23 -14
-18 -33 -69 -22 -63 4 3 17 -3 28 -14 12 -10 24 -16 27 -12 4 3 -6 16 -20 27
-19 15 -24 24 -15 29 7 5 10 2 9 -6 -2 -7 3 -12 10 -10 6 1 12 -2 12 -8 0 -6
9 -6 25 0 33 12 39 -1 18 -39 -18 -30 -18 -31 8 -55 15 -14 30 -22 33 -18 4 3
-6 16 -20 27 -21 17 -24 24 -14 30 8 5 11 4 6 -3 -10 -17 25 -31 51 -21 31 11
37 -3 16 -40 -18 -30 -18 -31 8 -55 15 -14 30 -22 33 -18 4 3 -3 14 -15 22
-16 13 -18 17 -5 17 9 0 16 -4 16 -8 0 -5 11 -4 25 1 27 10 43 -3 26 -23 -14
-18 -33 -69 -22 -63 4 3 17 -3 28 -14 12 -10 24 -16 27 -12 4 3 -6 16 -20 27
-21 17 -24 24 -14 30 8 5 11 4 6 -3 -10 -17 30 -35 52 -23 13 7 23 6 30 -1 14
-14 16 -32 3 -24 -5 3 -16 -5 -24 -18 -14 -21 -14 -25 6 -44 24 -25 14 -43
-25 -49 -22 -3 -22 -3 -3 11 11 8 24 12 29 9 5 -3 6 0 4 8 -3 8 -12 13 -19 11
-8 -2 -11 0 -6 4 4 4 -3 18 -15 31 -26 28 -48 31 -23 3 10 -11 15 -20 10 -20
-4 0 -2 -6 4 -14 8 -10 9 -16 1 -21 -6 -4 -10 -3 -9 2 1 4 0 11 -1 16 -1 4 -3
13 -4 20 -1 6 -7 11 -14 10 -7 -2 -11 0 -11 5 3 20 -3 23 -18 11 -16 -13 -17
-12 -4 3 7 10 18 15 23 11 6 -3 9 0 6 8 -3 8 -10 14 -17 14 -6 0 -17 11 -24
24 -7 14 -19 27 -27 29 -12 4 -13 3 -3 -10 10 -12 10 -15 -2 -15 -7 0 -14 3
-13 6 2 19 -4 22 -19 10 -16 -13 -17 -12 -4 3 7 10 18 15 23 11 6 -3 9 0 6 8
-3 8 -10 14 -17 14 -6 0 -17 11 -24 24 -7 14 -19 27 -27 29 -13 5 -13 3 -1
-14 14 -18 14 -18 -3 -2 -17 15 -21 15 -45 1 l-26 -15 25 20 c13 11 28 18 32
16 4 -3 8 -1 8 4 0 13 -25 33 -33 27 -4 -3 -5 -2 -2 2 6 8 -24 43 -38 43 -5 0
-5 -6 2 -13 8 -10 7 -14 -4 -14 -7 0 -14 3 -13 6 2 19 -4 22 -19 10 -16 -13
-17 -12 -4 3 7 10 18 15 23 11 6 -3 9 0 6 8 -3 8 -10 14 -17 14 -6 0 -17 11
-24 24 -7 14 -19 27 -27 29 -12 4 -13 3 -3 -10 10 -12 10 -15 -2 -15 -7 0 -14
3 -13 6 2 19 -4 22 -19 10 -16 -13 -17 -12 -4 3 7 10 18 15 23 11 6 -3 9 0 6
8 -3 8 -10 14 -17 14 -6 0 -17 11 -24 24 -7 14 -19 27 -27 29 -12 4 -13 3 -3
-10 10 -12 10 -15 -2 -15 -7 0 -14 3 -13 6 2 19 -4 22 -19 10 -16 -13 -17 -12
-4 3 7 10 18 15 23 11 6 -3 9 0 6 8 -3 8 -10 14 -17 14 -6 0 -17 11 -24 24 -7
14 -19 27 -27 29 -12 4 -13 3 -3 -10 10 -12 10 -15 -2 -15 -7 0 -14 3 -13 6 2
19 -4 22 -19 10 -16 -13 -17 -12 -4 3 7 10 18 15 23 11 6 -3 8 0 6 8 -3 8 -11
13 -17 11 -6 -1 -16 9 -21 24 -6 14 -15 22 -21 18 -8 -5 -8 -1 0 13 7 14 7 24
-2 33 -9 10 -9 11 0 6 6 -3 14 -2 18 4 9 15 21 12 36 -7z m9539 -76 c0 -1
-136 -137 -302 -302 l-303 -300 300 303 c279 281 305 307 305 299z m-9580 -32
c-6 -8 -8 -20 -4 -27 5 -10 4 -10 -6 -1 -11 10 -11 15 0 28 7 8 15 15 17 15 3
0 0 -7 -7 -15z m80 -80 c-6 -8 -8 -20 -4 -27 5 -10 4 -10 -6 -1 -11 10 -11 15
0 28 7 8 15 15 17 15 3 0 0 -7 -7 -15z m80 -80 c-6 -8 -8 -20 -4 -27 5 -10 4
-10 -6 -1 -11 10 -11 15 0 28 7 8 15 15 17 15 3 0 0 -7 -7 -15z m80 -80 c-6
-8 -8 -20 -4 -27 5 -10 4 -10 -6 -1 -11 10 -11 15 0 28 7 8 15 15 17 15 3 0 0
-7 -7 -15z m160 -160 c-6 -8 -8 -20 -4 -27 5 -10 4 -10 -6 -1 -11 10 -11 15 0
28 7 8 15 15 17 15 3 0 0 -7 -7 -15z m80 -80 c-6 -8 -8 -20 -4 -27 5 -10 4
-10 -6 -1 -11 10 -11 15 0 28 7 8 15 15 17 15 3 0 0 -7 -7 -15z m186 -117 l29
-33 -32 29 c-18 17 -33 31 -33 33 0 8 8 1 36 -29z m298 -289 c3 0 5 -1 4 -3
-2 -2 5 -13 15 -24 12 -13 15 -22 8 -27 -6 -3 -11 -11 -11 -16 0 -6 4 -7 10
-4 6 4 7 -1 3 -11 -5 -15 -7 -15 -15 0 -5 9 -13 14 -18 11 -5 -3 -12 0 -16 7
-4 7 -4 10 1 6 4 -4 17 -2 28 3 18 10 7 24 -124 158 -138 140 -139 141 -18 22
70 -68 129 -123 133 -122z m7696 27 c0 -2 -8 -10 -17 -17 -16 -13 -17 -12 -4
4 13 16 21 21 21 13z m347 -623 c-3 -10 -5 -2 -5 17 0 19 2 27 5 18 2 -10 2
-26 0 -35z m77 -98 c14 -11 16 -15 5 -15 -8 0 -23 7 -33 15 -14 11 -16 15 -5
15 8 0 23 -7 33 -15z m-8444 -38 c0 -1 -143 -144 -317 -317 l-318 -315 315
318 c293 295 320 322 320 314z m8480 -101 c0 -5 -7 -2 -16 5 -9 7 -29 14 -45
14 -15 0 -30 4 -33 8 -4 4 -3 5 0 3 10 -7 33 18 26 28 -3 5 11 -4 31 -20 20
-16 37 -33 37 -38z m126 -21 c14 -11 15 -14 4 -14 -8 0 -24 6 -34 14 -15 11
-16 15 -5 15 8 0 24 -7 35 -15z m80 -80 c14 -11 15 -14 4 -14 -8 0 -24 6 -34
14 -15 11 -16 15 -5 15 8 0 24 -7 35 -15z m80 -80 c14 -11 15 -14 4 -14 -8 0
-24 6 -34 14 -15 11 -16 15 -5 15 8 0 24 -7 35 -15z m78 -80 c14 -11 16 -15 5
-15 -8 0 -23 7 -33 15 -14 11 -16 15 -5 15 8 0 23 -7 33 -15z m283 -287 c-3
-8 -6 -5 -6 6 -1 11 2 17 5 13 3 -3 4 -12 1 -19z m-8187 -2001 c0 -2 -17 -19
-37 -38 l-38 -34 34 38 c33 34 41 42 41 34z m-80 -81 c0 -2 -8 -10 -17 -17
-16 -13 -17 -12 -4 4 13 16 21 21 21 13z m-80 -80 c0 -2 -8 -10 -17 -17 -16
-13 -17 -12 -4 4 13 16 21 21 21 13z m5630 -120 c0 -2 -8 -10 -17 -17 -16 -13
-17 -12 -4 4 13 16 21 21 21 13z m-5790 -40 c0 -2 -8 -10 -17 -17 -16 -13 -17
-12 -4 4 13 16 21 21 21 13z m3100 -619 c0 -1 -150 -151 -332 -332 l-333 -330
330 333 c307 309 335 336 335 329z m963 -10 c4 3 7 2 7 -3 0 -6 7 -19 16 -30
11 -13 14 -14 11 -4 -3 10 2 16 14 17 17 2 18 0 4 -14 -14 -14 -14 -17 1 -35
10 -10 24 -16 33 -13 8 3 12 3 9 -1 -4 -4 -3 -15 3 -26 10 -19 11 -19 24 -1 7
10 17 15 21 10 4 -4 2 -7 -5 -7 -7 0 -9 -5 -6 -10 4 -7 14 -6 28 1 21 10 21
10 3 -5 -17 -14 -15 -20 6 -17 3 0 5 -7 3 -17 -1 -9 2 -25 7 -35 9 -18 10 -18
23 0 7 10 17 15 21 10 4 -4 2 -7 -5 -7 -7 0 -9 -5 -6 -10 4 -7 14 -6 28 1 21
10 21 10 3 -5 -18 -14 -15 -20 6 -17 4 0 5 -8 3 -18 -2 -11 3 -27 12 -38 11
-13 13 -14 10 -3 -3 10 2 16 14 17 17 2 18 0 4 -14 -14 -14 -14 -17 1 -35 10
-10 24 -16 33 -13 8 3 12 3 9 -1 -4 -4 -3 -15 3 -26 10 -19 11 -19 24 -1 7 10
17 15 21 10 4 -4 2 -7 -5 -7 -7 0 -9 -5 -6 -10 4 -7 14 -6 28 1 21 10 21 10 3
-5 -17 -14 -15 -20 6 -17 3 0 5 -7 3 -17 -1 -9 2 -25 7 -35 9 -18 10 -18 23 0
7 10 17 15 21 10 4 -4 2 -7 -5 -7 -7 0 -9 -5 -6 -10 4 -7 14 -6 28 1 21 10 21
10 3 -5 -18 -14 -15 -20 6 -17 4 0 5 -8 3 -18 -2 -11 3 -27 12 -38 11 -13 13
-14 10 -3 -3 10 2 16 14 17 17 2 18 0 4 -14 -14 -14 -14 -17 1 -35 10 -10 23
-17 29 -14 6 2 12 -8 13 -23 l1 -26 -19 23 c-11 13 -21 18 -25 12 -3 -5 -11
-10 -17 -10 -6 0 -8 3 -5 7 4 3 -1 12 -11 20 -15 13 -15 13 5 4 33 -17 40 -12
15 9 -13 10 -31 17 -40 14 -14 -5 -15 -4 -2 5 8 5 11 13 7 17 -3 4 -13 1 -22
-6 -10 -8 -15 -9 -15 -1 0 6 5 11 10 11 6 0 10 5 10 10 0 7 -8 7 -22 -1 -13
-6 -20 -8 -16 -4 4 4 0 14 -10 22 -15 13 -15 13 5 4 33 -17 40 -12 15 9 -13
10 -31 17 -40 14 -14 -5 -15 -4 -2 5 8 5 11 13 7 17 -3 4 -13 1 -22 -6 -10 -8
-15 -9 -15 -1 0 6 5 11 10 11 6 0 10 5 10 10 0 7 -8 7 -22 -1 -13 -6 -20 -8
-16 -4 4 4 0 14 -10 22 -15 13 -15 13 5 4 33 -17 40 -12 15 9 -13 10 -31 17
-40 14 -14 -5 -15 -4 -2 5 8 5 11 13 7 17 -3 4 -13 1 -22 -6 -10 -8 -15 -9
-15 -1 0 6 5 11 10 11 6 0 10 5 10 10 0 7 -8 7 -22 -1 -13 -6 -20 -8 -16 -4 4
4 0 14 -10 22 -15 13 -15 13 5 4 33 -17 40 -12 15 9 -13 10 -31 17 -40 14 -14
-5 -15 -4 -2 5 8 5 11 13 7 17 -3 4 -13 1 -22 -6 -10 -8 -15 -9 -15 -1 0 6 5
11 10 11 6 0 10 5 10 10 0 7 -8 7 -22 -1 -13 -6 -20 -8 -16 -4 4 4 0 14 -10
22 -15 13 -15 13 5 4 33 -17 40 -12 15 9 -13 10 -31 17 -40 14 -14 -5 -15 -4
-2 5 8 5 11 13 7 17 -3 4 -13 1 -22 -6 -10 -8 -15 -9 -15 -1 0 6 5 11 10 11 6
0 10 5 10 10 0 7 -8 7 -22 -1 -13 -6 -20 -8 -16 -4 4 4 0 14 -10 22 -15 13
-15 13 5 4 33 -17 40 -12 15 9 -13 10 -31 17 -40 14 -14 -5 -15 -4 -2 5 8 5
11 13 7 17 -3 4 -13 1 -22 -6 -10 -8 -15 -9 -15 -1 0 6 5 11 10 11 6 0 10 5
10 10 0 7 -8 7 -22 -1 -13 -6 -20 -8 -16 -4 4 4 0 14 -10 22 -15 13 -15 13 5
4 33 -17 40 -12 15 9 -13 10 -31 17 -40 14 -14 -5 -15 -4 -2 5 8 5 11 13 7 17
-3 4 -13 1 -22 -6 -9 -7 -15 -8 -15 -2 0 6 6 12 13 15 9 3 8 8 -3 23 -14 17
-13 18 1 7 9 -7 19 -10 22 -6z m85 -41 c-10 -7 -14 -17 -10 -21 4 -5 1 -5 -6
-1 -10 6 -10 11 -1 22 6 8 17 14 23 14 6 0 3 -7 -6 -14z m-133 -6 c3 -5 1 -10
-4 -10 -6 0 -11 5 -11 10 0 6 2 10 4 10 3 0 8 -4 11 -10z m80 -80 c3 -5 1 -10
-4 -10 -6 0 -11 5 -11 10 0 6 2 10 4 10 3 0 8 -4 11 -10z m80 -80 c3 -5 1 -10
-4 -10 -6 0 -11 5 -11 10 0 6 2 10 4 10 3 0 8 -4 11 -10z m213 -74 c-10 -7
-14 -17 -10 -21 4 -5 1 -5 -6 -1 -10 6 -10 11 -1 22 6 8 17 14 23 14 6 0 3 -7
-6 -14z m-133 -6 c3 -5 1 -10 -4 -10 -6 0 -11 5 -11 10 0 6 2 10 4 10 3 0 8
-4 11 -10z m80 -80 c3 -5 1 -10 -4 -10 -6 0 -11 5 -11 10 0 6 2 10 4 10 3 0 8
-4 11 -10z m80 -80 c3 -5 1 -10 -4 -10 -6 0 -11 5 -11 10 0 6 2 10 4 10 3 0 8
-4 11 -10z m213 -74 c-10 -7 -14 -17 -10 -21 4 -5 1 -5 -6 -1 -10 6 -10 11 -1
22 6 8 17 14 23 14 6 0 3 -7 -6 -14z m-133 -6 c3 -5 1 -10 -4 -10 -6 0 -11 5
-11 10 0 6 2 10 4 10 3 0 8 -4 11 -10z m278 -237 c-7 -2 -19 -2 -25 0 -7 3 -2
5 12 5 14 0 19 -2 13 -5z"/>
<path d="M5575 11020 c42 -43 60 -54 29 -17 -31 37 -53 57 -61 57 -4 0 11 -18
32 -40z"/>
<path d="M5700 10897 c0 -2 14 -16 30 -32 36 -34 40 -27 6 9 -20 23 -36 32
-36 23z"/>
<path d="M1705 7597 c1 -12 6 -21 11 -20 15 3 15 19 1 31 -11 9 -13 7 -12 -11z"/>
<path d="M1801 7528 c-20 -20 -20 -44 0 -32 5 3 7 10 4 15 -4 5 -2 9 3 9 6 0
12 7 16 15 8 21 0 19 -23 -7z"/>
<path d="M1866 7431 c-4 -5 -2 -12 3 -15 5 -4 12 -2 15 3 4 5 2 12 -3 15 -5 4
-12 2 -15 -3z"/>
<path d="M1961 7368 c-20 -20 -20 -44 0 -32 5 3 7 10 4 15 -4 5 -2 9 3 9 6 0
12 7 16 15 8 21 0 19 -23 -7z"/>
<path d="M2041 7288 c-20 -20 -20 -44 0 -32 5 3 7 10 4 15 -4 5 -2 9 3 9 6 0
12 7 16 15 8 21 0 19 -23 -7z"/>
<path d="M2121 7208 c-20 -20 -20 -44 0 -32 5 3 7 10 4 15 -4 5 -2 9 3 9 6 0
12 7 16 15 8 21 0 19 -23 -7z"/>
<path d="M2201 7128 c-20 -20 -20 -44 0 -32 5 3 7 10 4 15 -4 5 -2 9 3 9 6 0
12 7 16 15 8 21 0 19 -23 -7z"/>
<path d="M2281 7048 c-20 -20 -20 -44 0 -32 5 3 7 10 4 15 -4 5 -2 9 3 9 6 0
12 7 16 15 8 21 0 19 -23 -7z"/>
<path d="M7154 2151 c11 -11 23 -21 28 -21 14 0 -1 19 -25 31 -22 12 -22 12
-3 -10z"/>
<path d="M7234 2071 c11 -11 23 -21 28 -21 14 0 -1 19 -25 31 -22 12 -22 12
-3 -10z"/>
<path d="M7394 1911 c11 -11 23 -21 28 -21 14 0 -1 19 -25 31 -22 12 -22 12
-3 -10z"/>
<path d="M7474 1831 c11 -11 23 -21 28 -21 14 0 -1 19 -25 31 -22 12 -22 12
-3 -10z"/>
<path d="M5000 11430 c-18 -12 -2 -12 25 0 13 6 15 9 5 9 -8 0 -22 -4 -30 -9z"/>
<path d="M5068 11433 c7 -3 16 -2 19 1 4 3 -2 6 -13 5 -11 0 -14 -3 -6 -6z"/>
<path d="M5773 10746 c1 -10 13 -25 27 -33 25 -15 25 -15 4 4 -11 10 -24 25
-27 33 -5 11 -6 9 -4 -4z"/>
<path d="M5860 10737 c0 -2 14 -16 30 -32 36 -34 40 -27 6 9 -20 23 -36 32
-36 23z"/>
<path d="M5841 10697 c9 -7 14 -18 12 -24 -3 -7 0 -13 6 -13 6 0 11 6 11 13 0
16 -20 37 -34 37 -6 0 -4 -6 5 -13z"/>
<path d="M6736 10313 c-11 -12 -6 -19 14 -20 11 -1 20 2 20 7 0 10 -26 20 -34
13z"/>
<path d="M6257 10283 c-4 -3 -7 -13 -7 -22 1 -13 3 -13 11 2 11 19 8 33 -4 20z"/>
<path d="M6684 10227 l-19 -22 21 18 c17 14 23 15 27 5 4 -9 6 -9 6 -1 2 22
-16 23 -35 0z"/>
<path d="M4500 10191 c0 -5 -12 -12 -27 -16 -15 -3 -22 -9 -17 -13 6 -4 16
-16 22 -27 8 -15 11 -16 12 -4 0 8 -5 20 -12 27 -9 9 -8 12 4 12 8 0 21 7 28
15 9 10 9 15 1 15 -6 0 -11 -4 -11 -9z"/>
<path d="M6579 10173 c-13 -16 -12 -17 4 -4 9 7 17 15 17 17 0 8 -8 3 -21 -13z"/>
<path d="M8508 10133 c7 -3 16 -2 19 1 4 3 -2 6 -13 5 -11 0 -14 -3 -6 -6z"/>
<path d="M4528 9703 c7 -3 16 -2 19 1 4 3 -2 6 -13 5 -11 0 -14 -3 -6 -6z"/>
<path d="M4435 9660 c-3 -5 -2 -10 4 -10 5 0 13 5 16 10 3 6 2 10 -4 10 -5 0
-13 -4 -16 -10z"/>
<path d="M1581 7973 c-10 -26 -10 -27 4 -9 8 11 15 23 15 28 0 15 -7 8 -19
-19z"/>
<path d="M1551 7934 c0 -11 3 -14 6 -6 3 7 2 16 -1 19 -3 4 -6 -2 -5 -13z"/>
<path d="M1583 7870 c-1 -43 1 -49 7 -27 5 15 5 39 1 55 -7 21 -8 15 -8 -28z"/>
<path d="M2925 7690 c-3 -5 -1 -10 4 -10 6 0 11 5 11 10 0 6 -2 10 -4 10 -3 0
-8 -4 -11 -10z"/>
<path d="M2901 7654 c-7 -8 -10 -18 -6 -22 4 -4 10 -1 12 6 3 6 9 10 14 7 5
-4 6 1 3 9 -7 19 -6 19 -23 0z"/>
<path d="M4963 7200 c-174 -46 -318 -158 -418 -329 -46 -77 -77 -183 -90 -307
-8 -75 10 -236 36 -318 58 -190 245 -376 439 -437 83 -27 282 -37 372 -19 138
26 285 113 381 223 67 77 108 148 143 252 25 72 27 94 28 230 1 131 -2 160
-22 225 -66 210 -201 360 -405 450 -117 52 -328 66 -464 30z m352 -110 c54
-28 76 -46 106 -90 81 -117 103 -235 96 -528 -6 -294 -30 -387 -131 -499 -63
-70 -127 -97 -231 -97 -134 0 -227 55 -288 172 -62 118 -71 175 -72 442 0 193
3 247 18 305 36 139 95 241 165 282 73 43 112 53 193 51 64 -3 87 -8 144 -38z"/>
<path d="M6570 7205 c-168 -41 -325 -161 -418 -320 -78 -133 -108 -271 -99
-450 15 -277 139 -480 363 -590 170 -84 417 -88 552 -9 61 36 114 85 108 100
-3 7 0 11 7 8 7 -2 21 9 32 26 11 16 23 30 28 30 4 0 31 -48 60 -107 l53 -108
42 -3 42 -3 0 269 c0 205 3 272 13 286 10 13 32 19 80 23 l67 6 0 38 0 39
-335 0 -335 0 0 -39 0 -39 91 -4 c122 -4 129 -13 129 -147 0 -59 -6 -118 -16
-150 -13 -44 -13 -55 -2 -69 12 -15 11 -16 -5 -3 -19 15 -29 7 -58 -42 -5 -9
-33 -29 -62 -45 -47 -24 -62 -27 -157 -27 -94 0 -110 3 -155 27 -118 62 -179
184 -201 400 -4 47 -10 66 -18 61 -8 -5 -8 -3 0 8 7 9 14 82 17 194 4 158 8
191 31 270 44 145 104 222 211 271 111 51 243 31 355 -54 19 -15 40 -25 45
-24 6 2 7 1 3 -3 -4 -4 11 -33 33 -65 43 -64 72 -123 104 -220 l22 -65 43 -3
43 -3 -6 78 c-4 43 -12 166 -18 273 -7 107 -13 197 -15 199 -2 2 -11 -2 -21
-10 -11 -9 -14 -10 -9 -1 5 8 1 12 -12 12 -23 0 -32 -9 -67 -78 -15 -29 -31
-54 -35 -57 -4 -2 -16 5 -26 16 -30 33 -132 89 -192 104 -70 18 -237 18 -312
0z"/>
<path d="M3060 7145 l0 -45 78 0 c119 0 122 -4 122 -151 0 -93 3 -119 13 -113
10 6 10 4 0 -7 -10 -10 -13 -106 -13 -409 l0 -395 113 -111 112 -110 395 1
395 0 16 260 c9 143 15 263 13 266 -2 4 -54 5 -75 0 -4 0 -20 -45 -37 -98 -51
-161 -123 -263 -217 -308 -58 -28 -57 -28 -242 -26 -114 1 -145 4 -157 17 -14
14 -16 80 -16 578 0 461 2 566 14 581 11 15 30 20 105 23 l91 4 0 44 0 44 -67
0 c-49 0 -72 -5 -87 -17 -20 -17 -20 -17 -7 0 13 16 -1 17 -268 17 l-281 0 0
-45z"/>
<path d="M7620 7146 l0 -44 86 -3 c136 -6 124 51 124 -605 0 -541 0 -554 -20
-574 -20 -20 -45 -23 -152 -23 l-38 0 0 -48 0 -49 356 0 355 0 -3 48 -3 47
-60 1 c-95 1 -104 3 -125 24 -20 20 -20 33 -20 578 0 466 2 561 14 578 12 16
29 20 105 22 l91 4 0 44 0 44 -355 0 -355 0 0 -44z"/>
<path d="M8470 7145 l0 -45 44 0 c59 0 105 -17 144 -53 l32 -31 0 -461 c0
-509 -2 -533 -61 -600 -32 -36 -110 -68 -149 -60 -18 3 -20 -1 -20 -46 l0 -49
281 0 280 0 -3 47 -3 47 -45 4 c-51 4 -120 40 -143 75 -34 52 -37 100 -40 505
-1 221 1 401 5 400 11 -5 62 -70 483 -612 22 -28 96 -123 165 -211 69 -87 130
-166 137 -175 10 -13 21 -7 75 45 l63 60 -60 -62 -59 -63 21 -27 c17 -24 28
-28 69 -29 l49 -1 6 101 c3 55 6 314 7 574 2 439 3 476 20 515 26 58 53 79
119 92 l57 11 0 47 1 47 -256 0 -255 0 -3 -44 -2 -44 43 -8 c24 -4 46 -7 50
-6 4 1 29 -20 57 -47 40 -39 51 -57 56 -92 3 -24 5 -190 3 -368 l-3 -323 -91
113 c-49 63 -148 188 -220 278 -153 195 -281 357 -366 464 l-62 77 -213 0
-213 0 0 -45z"/>
<path d="M2321 7124 c0 -11 3 -14 6 -6 3 7 2 16 -1 19 -3 4 -6 -2 -5 -13z"/>
<path d="M10214 6440 c0 -15 5 -27 13 -27 9 0 10 4 2 14 -8 9 -8 17 0 26 8 10
7 14 -2 14 -8 0 -13 -12 -13 -27z"/>
<path d="M2816 6391 c-4 -5 -2 -12 3 -15 5 -4 12 -2 15 3 4 5 2 12 -3 15 -5 4
-12 2 -15 -3z"/>
<path d="M10256 6298 c2 -3 1 -8 -3 -11 -5 -2 -2 -2 5 0 11 2 13 -9 10 -47 -2
-38 1 -50 12 -54 11 -3 11 -4 -2 -5 -10 0 -18 -5 -18 -10 0 -6 11 -7 28 -2 15
5 47 14 71 21 l44 12 -53 53 c-35 36 -60 52 -75 51 -13 0 -21 -4 -19 -8z m95
-65 c13 -16 12 -17 -3 -4 -10 7 -18 15 -18 17 0 8 8 3 21 -13z"/>
<path d="M2676 6231 l-37 -38 51 -17 c53 -17 83 -15 39 3 l-24 10 25 1 c14 1
19 4 13 7 -7 2 -13 18 -13 33 0 43 -13 43 -54 1z m40 9 c0 -12 -4 -16 -9 -11
-5 5 -6 14 -3 20 10 15 12 14 12 -9z"/>
<path d="M2472 6220 c0 -14 2 -19 5 -12 2 6 2 18 0 25 -3 6 -5 1 -5 -13z"/>
<path d="M10522 6205 c0 -16 2 -22 5 -12 2 9 2 23 0 30 -3 6 -5 -1 -5 -18z"/>
<path d="M10451 6173 c7 -12 15 -20 18 -17 3 2 -3 12 -13 22 -17 16 -18 16 -5
-5z"/>
<path d="M10480 6146 c0 -2 7 -9 15 -16 9 -7 15 -8 15 -2 0 5 -7 12 -15 16 -8
3 -15 4 -15 2z"/>
<path d="M3260 5978 c0 -20 -8 -46 -19 -59 -20 -24 -17 -24 -168 -29 -9 0 -13
-16 -13 -46 l0 -45 205 2 c113 1 205 3 205 3 0 1 -47 48 -105 106 l-105 105 0
-37z"/>
<path d="M2527 5779 c4 -13 8 -18 11 -10 2 7 -1 18 -6 23 -8 8 -9 4 -5 -13z"/>
<path d="M10855 5730 c-3 -5 1 -10 10 -10 9 0 13 5 10 10 -3 6 -8 10 -10 10
-2 0 -7 -4 -10 -10z"/>
<path d="M10910 5711 c0 -7 -4 -9 -10 -6 -6 4 -7 -1 -3 -11 4 -11 2 -15 -4
-11 -6 4 -10 -3 -10 -16 0 -21 4 -24 38 -23 20 0 35 4 32 9 -3 5 0 8 8 5 8 -3
15 -17 16 -32 1 -14 -2 -24 -6 -21 -5 2 -8 -6 -8 -19 0 -18 5 -23 22 -22 13 0
21 4 18 9 -7 12 12 8 27 -5 12 -11 12 -10 1 5 -7 9 -9 17 -3 17 5 0 14 -6 19
-12 12 -16 15 -60 4 -53 -5 2 -8 -6 -8 -18 0 -21 4 -24 38 -23 30 0 36 3 27
13 -17 20 7 15 25 -5 19 -20 23 -37 7 -27 -6 4 -7 -1 -3 -11 4 -11 2 -15 -4
-11 -6 4 -10 -3 -10 -16 0 -21 4 -24 38 -23 20 0 35 4 33 8 -9 14 13 9 25 -6
6 -7 9 -21 5 -30 -3 -9 -1 -16 5 -16 12 0 14 14 5 48 -4 12 -12 22 -18 22 -15
0 -51 38 -59 63 -4 9 -12 17 -20 17 -17 0 -69 54 -61 63 4 4 -2 10 -12 13 -27
10 -74 55 -68 66 3 4 -3 11 -13 15 -10 3 -30 17 -45 31 -16 14 -28 20 -28 13z
m34 -50 c-12 -12 -52 -7 -47 6 3 7 9 13 15 13 5 0 6 6 2 13 -4 6 2 3 14 -7 12
-11 19 -22 16 -25z m62 -53 c10 -12 13 -18 7 -14 -7 4 -13 3 -13 -2 0 -6 -7
-12 -14 -15 -10 -4 -13 -1 -9 9 3 7 10 14 15 14 6 0 5 6 -2 15 -20 24 -5 18
16 -7z m94 -90 c0 -5 -6 -8 -12 -8 -9 0 -9 -3 1 -9 10 -7 7 -9 -11 -8 -24 2
-29 27 -6 27 6 0 4 7 -3 17 -13 15 -12 15 9 2 12 -8 22 -17 22 -21z m84 -97
c-12 -12 -52 -7 -47 6 3 7 9 13 15 13 5 0 6 6 2 13 -4 6 2 3 14 -7 12 -11 19
-22 16 -25z"/>
<path d="M10411 5594 c0 -11 3 -14 6 -6 3 7 2 16 -1 19 -3 4 -6 -2 -5 -13z"/>
<path d="M2570 5554 c0 -6 7 -19 16 -30 14 -18 14 -18 3 6 -14 31 -19 36 -19
24z"/>
<path d="M2667 5260 c3 -11 7 -20 9 -20 2 0 4 9 4 20 0 11 -4 20 -9 20 -5 0
-7 -9 -4 -20z"/>
<path d="M11463 5182 c3 -12 -1 -29 -9 -36 -8 -8 -14 -21 -14 -28 0 -7 10 1
21 19 16 26 18 36 9 50 -10 16 -11 16 -7 -5z"/>
<path d="M10247 5087 c-3 -8 1 -14 8 -14 7 0 11 6 8 14 -3 7 -6 13 -8 13 -2 0
-5 -6 -8 -13z"/>
<path d="M11446 5083 c-6 -14 -5 -15 5 -6 7 7 10 15 7 18 -3 3 -9 -2 -12 -12z"/>
<path d="M2752 5010 c0 -14 2 -19 5 -12 2 6 2 18 0 25 -3 6 -5 1 -5 -13z"/>
<path d="M11400 4989 c0 -5 5 -7 10 -4 6 3 10 8 10 11 0 2 -4 4 -10 4 -5 0
-10 -5 -10 -11z"/>
<path d="M2767 4983 c-4 -3 -7 -11 -7 -17 0 -6 5 -5 12 2 6 6 9 14 7 17 -3 3
-9 2 -12 -2z"/>
<path d="M2826 4827 c3 -10 9 -15 12 -12 3 3 0 11 -7 18 -10 9 -11 8 -5 -6z"/>
<path d="M2840 4791 c0 -5 5 -13 10 -16 6 -3 10 -2 10 4 0 5 -4 13 -10 16 -5
3 -10 2 -10 -4z"/>
<path d="M10110 4721 c0 -25 6 -27 13 -6 4 8 2 17 -3 20 -6 4 -10 -3 -10 -14z"/>
<path d="M2935 4611 c-3 -5 -2 -12 3 -15 5 -3 9 1 9 9 0 17 -3 19 -12 6z"/>
<path d="M9710 4080 c0 -5 5 -10 10 -10 6 0 10 5 10 10 0 6 -4 10 -10 10 -5 0
-10 -4 -10 -10z"/>
<path d="M3320 4023 c0 -6 8 -17 18 -24 16 -13 16 -13 2 6 -8 11 -16 22 -17
24 -2 2 -3 0 -3 -6z"/>
<path d="M3490 3806 c0 -2 7 -7 16 -10 8 -3 12 -2 9 4 -6 10 -25 14 -25 6z"/>
<path d="M3530 3769 c0 -5 5 -7 10 -4 6 3 10 8 10 11 0 2 -4 4 -10 4 -5 0 -10
-5 -10 -11z"/>
<path d="M3700 3695 c-7 -9 -11 -17 -9 -20 3 -2 10 5 17 15 14 24 10 26 -8 5z"/>
<path d="M4045 3300 c-3 -5 -1 -10 4 -10 6 0 11 5 11 10 0 6 -2 10 -4 10 -3 0
-8 -4 -11 -10z"/>
<path d="M4440 2960 c0 -22 5 -40 10 -40 6 0 10 18 10 40 0 22 -4 40 -10 40
-5 0 -10 -18 -10 -40z"/>
<path d="M8448 2963 c7 -3 16 -2 19 1 4 3 -2 6 -13 5 -11 0 -14 -3 -6 -6z"/>
<path d="M8348 2913 c7 -3 16 -2 19 1 4 3 -2 6 -13 5 -11 0 -14 -3 -6 -6z"/>
<path d="M8563 2890 c-1 -31 17 -39 48 -22 29 17 37 31 19 33 -46 6 -67 3 -67
-11z m43 -5 c-16 -17 -36 -20 -36 -6 0 8 17 16 43 20 5 0 2 -6 -7 -14z"/>
<path d="M4957 2759 c7 -7 15 -10 18 -7 3 3 -2 9 -12 12 -14 6 -15 5 -6 -5z"/>
<path d="M8020 2759 c0 -5 5 -7 10 -4 6 3 10 8 10 11 0 2 -4 4 -10 4 -5 0 -10
-5 -10 -11z"/>
<path d="M4998 2743 c7 -3 16 -2 19 1 4 3 -2 6 -13 5 -11 0 -14 -3 -6 -6z"/>
<path d="M7950 2729 c0 -5 5 -7 10 -4 6 3 10 8 10 11 0 2 -4 4 -10 4 -5 0 -10
-5 -10 -11z"/>
<path d="M5078 2713 c7 -3 16 -2 19 1 4 3 -2 6 -13 5 -11 0 -14 -3 -6 -6z"/>
<path d="M7908 2713 c7 -3 16 -2 19 1 4 3 -2 6 -13 5 -11 0 -14 -3 -6 -6z"/>
<path d="M7860 2700 c0 -5 7 -10 15 -10 8 0 15 5 15 10 0 6 -7 10 -15 10 -8 0
-15 -4 -15 -10z"/>
<path d="M5318 2633 c7 -3 16 -2 19 1 4 3 -2 6 -13 5 -11 0 -14 -3 -6 -6z"/>
<path d="M5468 2593 c6 -2 18 -2 25 0 6 3 1 5 -13 5 -14 0 -19 -2 -12 -5z"/>
<path d="M5516 2581 c-3 -4 6 -6 19 -3 14 2 25 6 25 8 0 8 -39 4 -44 -5z"/>
<path d="M7468 2583 c7 -3 16 -2 19 1 4 3 -2 6 -13 5 -11 0 -14 -3 -6 -6z"/>
<path d="M5628 2573 c6 -2 18 -2 25 0 6 3 1 5 -13 5 -14 0 -19 -2 -12 -5z"/>
<path d="M7430 2570 c8 -5 20 -10 25 -10 6 0 3 5 -5 10 -8 5 -19 10 -25 10 -5
0 -3 -5 5 -10z"/>
<path d="M7378 2563 c6 -2 18 -2 25 0 6 3 1 5 -13 5 -14 0 -19 -2 -12 -5z"/>
<path d="M5581 2556 c2 -2 22 -6 44 -9 28 -5 34 -4 20 3 -19 8 -73 14 -64 6z"/>
<path d="M6270 2556 c0 -2 8 -10 18 -17 15 -13 16 -12 3 4 -13 16 -21 21 -21
13z"/>
<path d="M7340 2556 c0 -2 7 -7 16 -10 8 -3 12 -2 9 4 -6 10 -25 14 -25 6z"/>
<path d="M5718 2533 c7 -3 16 -2 19 1 4 3 -2 6 -13 5 -11 0 -14 -3 -6 -6z"/>
<path d="M6173 2496 c1 -6 -9 -10 -23 -9 -22 2 -23 2 -5 -6 11 -4 26 -6 34 -3
8 3 12 1 8 -4 -7 -12 48 -13 59 -1 5 4 0 5 -10 1 -13 -5 -17 -4 -13 3 4 6 1
15 -6 21 -16 13 -46 11 -44 -2z m38 -9 c-1 -12 -15 -9 -19 4 -3 6 1 10 8 8 6
-3 11 -8 11 -12z"/>
<path d="M6840 2501 c13 -9 8 -15 -11 -13 -3 1 -6 -5 -6 -13 0 -7 6 -11 14 -8
7 3 13 9 13 14 0 5 5 9 11 9 5 0 7 -4 4 -10 -9 -15 4 -12 21 4 12 13 12 15 -3
14 -10 0 -27 3 -38 7 -16 5 -17 5 -5 -4z"/>
<path d="M5918 2493 c6 -2 18 -2 25 0 6 3 1 5 -13 5 -14 0 -19 -2 -12 -5z"/>
<path d="M6043 2493 c9 -2 23 -2 30 0 6 3 -1 5 -18 5 -16 0 -22 -2 -12 -5z"/>
<path d="M6704 2493 c15 -4 16 -7 5 -15 -11 -7 -11 -9 -1 -6 20 5 16 23 -5 25
-15 2 -15 1 1 -4z"/>
<path d="M7048 2493 c7 -3 16 -2 19 1 4 3 -2 6 -13 5 -11 0 -14 -3 -6 -6z"/>
<path d="M5988 2483 c6 -2 18 -2 25 0 6 3 1 5 -13 5 -14 0 -19 -2 -12 -5z"/>
<path d="M6786 2475 c-18 -14 -18 -14 1 -12 11 0 20 7 20 14 0 7 -1 13 -1 13
-1 0 -9 -7 -20 -15z"/>
<path d="M6910 2480 c-8 -5 -10 -10 -5 -10 6 0 17 5 25 10 8 5 11 10 5 10 -5
0 -17 -5 -25 -10z"/>
<path d="M6073 2473 c9 -2 23 -2 30 0 6 3 -1 5 -18 5 -16 0 -22 -2 -12 -5z"/>
<path d="M6318 2463 c7 -3 16 -2 19 1 4 3 -2 6 -13 5 -11 0 -14 -3 -6 -6z"/>
<path d="M7185 2320 c-3 -5 1 -10 10 -10 9 0 13 5 10 10 -3 6 -8 10 -10 10 -2
0 -7 -4 -10 -10z"/>
<path d="M8030 1610 c-9 -6 -10 -10 -3 -10 6 0 15 5 18 10 8 12 4 12 -15 0z"/>
<path d="M7966 1575 c-3 -8 -1 -15 3 -15 5 0 11 7 15 15 3 8 1 15 -3 15 -5 0
-11 -7 -15 -15z"/>
</g>
</svg>
