<?xml version="1.0" standalone="no"?>
<!DOCTYPE svg PUBLIC "-//W3C//DTD SVG 20010904//EN"
 "http://www.w3.org/TR/2001/REC-SVG-20010904/DTD/svg10.dtd">
<svg version="1.0" xmlns="http://www.w3.org/2000/svg"
 width="399.000000pt" height="156.000000pt" viewBox="0 0 399.000000 156.000000"
 preserveAspectRatio="xMidYMid meet">

<g transform="translate(0.000000,156.000000) scale(0.100000,-0.100000)"
fill="#000000" stroke="none">
<path d="M1556 1538 c-22 -31 -22 -92 0 -84 9 3 21 6 27 6 8 0 7 4 -2 9 -17
11 -7 61 13 61 7 0 21 -9 30 -19 13 -15 14 -20 4 -24 -9 -4 -8 -6 3 -6 32 -2
39 -56 10 -66 -23 -7 -34 -35 -25 -59 5 -12 16 -16 38 -14 30 3 31 5 34 52 2
26 -1 61 -7 77 -7 20 -6 29 2 33 7 3 6 5 -3 5 -8 1 -26 13 -39 26 -29 31 -65
32 -85 3z"/>
<path d="M1708 1513 c7 -3 16 -2 19 1 4 3 -2 6 -13 5 -11 0 -14 -3 -6 -6z"/>
<path d="M1427 1492 c-10 -10 -17 -35 -17 -55 0 -20 -2 -37 -5 -37 -2 0 -15
11 -29 25 -31 31 -81 34 -96 6 -5 -11 -10 -33 -10 -50 0 -37 -2 -38 -34 -6
-28 28 -67 33 -85 11 -7 -8 -13 -31 -14 -50 -1 -20 -4 -36 -6 -36 -2 0 -16 11
-33 25 -16 14 -37 25 -47 25 -28 0 -51 -33 -51 -74 0 -34 2 -37 23 -30 32 9
59 27 30 19 -19 -5 -23 -2 -23 19 0 14 4 28 10 31 15 9 52 -15 46 -31 -3 -8 1
-14 9 -14 8 0 15 -6 15 -14 0 -8 2 -21 5 -28 4 -9 -4 -19 -20 -26 -17 -8 -25
-20 -25 -36 0 -34 30 -50 58 -30 23 16 23 22 7 126 -3 20 1 28 16 33 13 5 18
12 14 22 -16 42 27 71 56 37 10 -13 10 -17 -2 -26 -11 -8 -11 -9 3 -5 9 3 19
-1 22 -9 11 -29 6 -53 -13 -59 -47 -15 -31 -79 18 -73 26 3 26 4 26 82 0 55 4
81 13 83 6 3 12 17 12 32 0 36 17 53 42 40 21 -11 24 -35 6 -43 -7 -3 -3 -3 9
-1 17 5 22 0 28 -25 4 -17 5 -32 3 -33 -47 -25 -59 -60 -25 -81 42 -27 69 41
47 122 -8 31 -7 34 23 47 18 8 26 14 19 15 -16 0 -12 52 4 57 14 5 46 -26 39
-37 -3 -4 2 -10 10 -14 20 -7 20 -66 0 -66 -18 0 -37 -34 -29 -54 9 -23 44
-30 62 -12 20 20 17 107 -5 154 -14 29 -57 62 -81 62 -5 0 -16 -8 -25 -18z"/>
<path d="M1780 1365 c0 -5 5 -17 10 -25 5 -8 10 -10 10 -5 0 6 -5 17 -10 25
-5 8 -10 11 -10 5z"/>
<path d="M940 1191 c-10 -31 -10 -45 1 -74 7 -20 16 -34 21 -31 4 3 5 -1 2 -9
-2 -7 4 -35 16 -61 11 -26 20 -52 20 -57 0 -5 -45 -9 -100 -9 -93 0 -100 -1
-100 -20 0 -11 7 -20 15 -20 12 0 15 -19 15 -115 0 -96 -3 -115 -15 -115 -8 0
-15 -9 -15 -20 0 -19 7 -20 124 -20 69 0 127 3 130 8 2 4 7 24 11 45 7 35 6
37 -18 37 -15 0 -31 -9 -41 -25 -12 -19 -25 -25 -51 -25 l-35 0 0 50 c0 47 2
50 25 50 14 0 28 -7 31 -15 4 -8 17 -15 30 -15 22 0 24 4 24 50 0 47 -2 50
-25 50 -16 0 -25 -6 -25 -15 0 -10 -10 -15 -30 -15 -29 0 -30 2 -30 45 0 45 0
45 35 45 29 0 37 -5 45 -26 6 -14 14 -23 19 -19 5 3 13 0 16 -6 4 -5 14 -8 22
-4 13 4 13 3 4 -9 -15 -18 -3 -49 17 -41 12 4 12 3 3 -8 -17 -21 5 -78 27 -70
13 4 14 3 3 -5 -19 -13 -5 -55 16 -47 13 4 13 3 4 -9 -15 -18 -3 -49 17 -41
12 4 12 3 3 -8 -16 -20 6 -80 27 -72 12 4 12 3 3 -9 -15 -18 -3 -49 17 -41 12
4 12 3 3 -9 -15 -18 -3 -49 17 -41 12 4 12 3 3 -8 -8 -10 -8 -22 0 -46 13 -36
15 -37 43 -14 18 15 17 14 -2 -8 -25 -28 -21 -65 6 -54 12 4 12 3 3 -9 -12
-14 -5 -46 11 -46 5 0 7 -4 4 -9 -3 -5 -1 -23 5 -40 8 -23 16 -30 27 -26 12 4
12 3 3 -9 -15 -18 -3 -49 17 -41 12 4 12 3 3 -8 -9 -11 -6 -27 10 -71 12 -31
26 -56 31 -56 5 0 7 4 4 9 -4 5 2 7 11 5 10 -2 24 0 32 5 13 8 13 12 1 28 -14
17 -14 17 6 0 22 -19 39 -23 29 -7 -3 6 1 7 9 4 9 -3 16 -1 16 6 0 6 4 9 9 6
5 -3 23 -1 40 5 23 8 30 16 26 27 -4 12 -3 12 9 3 13 -11 46 -6 46 8 0 4 -6
13 -12 21 -7 8 -4 7 8 -3 21 -17 54 -14 54 5 0 5 4 7 9 4 11 -7 71 13 71 25 0
4 6 6 14 3 7 -3 20 1 27 8 8 7 19 13 24 14 29 1 64 17 58 27 -3 6 -1 7 6 3 9
-6 214 66 230 80 2 2 -2 12 -10 21 -11 15 -10 15 9 -1 12 -11 24 -17 26 -15 8
10 37 71 34 74 -2 1 -96 -34 -211 -78 -156 -61 -206 -85 -202 -96 4 -11 2 -11
-8 -3 -11 9 -49 -2 -167 -48 -85 -33 -160 -60 -168 -60 -8 0 -10 -5 -6 -13 4
-7 3 -8 -2 -4 -5 5 -9 14 -10 20 0 7 -2 20 -2 30 -1 11 -7 15 -13 11 -7 -4 -9
0 -5 14 4 11 1 26 -7 34 -7 7 -12 19 -9 27 3 8 0 11 -7 7 -7 -5 -9 -1 -5 8 3
9 1 16 -5 16 -6 0 -8 7 -4 17 4 10 2 14 -4 10 -7 -5 -9 0 -6 11 2 11 -2 25
-10 33 -7 8 -12 19 -10 25 2 7 -2 18 -10 25 -7 8 -12 19 -10 25 2 7 -2 18 -10
25 -7 8 -12 20 -9 28 3 8 0 11 -6 7 -6 -3 -8 1 -5 12 2 11 -2 25 -10 33 -7 8
-12 19 -10 25 2 7 -2 18 -10 25 -7 8 -12 20 -9 28 3 8 0 11 -7 7 -7 -5 -9 -1
-5 8 3 9 1 16 -5 16 -6 0 -8 7 -4 17 4 10 2 14 -4 10 -7 -5 -9 0 -6 11 2 11
-2 25 -10 33 -7 8 -12 19 -10 25 2 7 -2 18 -10 25 -7 8 -12 20 -9 28 3 8 0 11
-7 7 -7 -5 -9 -1 -5 8 3 9 1 16 -5 16 -6 0 -8 7 -4 17 4 10 2 14 -4 10 -7 -5
-9 0 -6 11 2 11 -2 25 -10 33 -7 8 -12 20 -9 28 3 8 0 11 -7 7 -7 -5 -9 -1 -5
8 3 9 1 16 -5 16 -6 0 -8 7 -4 17 4 10 2 14 -4 10 -6 -4 -11 -1 -10 6 1 31 -4
48 -12 43 -5 -4 -7 2 -4 12 2 11 -2 25 -10 33 -7 8 -12 20 -9 28 3 8 0 11 -7
7 -7 -5 -9 -1 -5 8 3 9 1 16 -5 16 -6 0 -8 7 -4 17 4 10 2 14 -4 10 -6 -4 -11
-1 -10 6 1 29 -4 48 -10 44 -5 -3 -9 6 -10 19 -6 68 -14 71 -33 15z m1061
-928 c13 -16 12 -17 -3 -4 -17 13 -22 21 -14 21 2 0 10 -8 17 -17z m-180 -70
c13 -16 12 -17 -3 -4 -17 13 -22 21 -14 21 2 0 10 -8 17 -17z"/>
<path d="M1850 1185 c0 -5 5 -17 10 -25 5 -8 10 -10 10 -5 0 6 -5 17 -10 25
-5 8 -10 11 -10 5z"/>
<path d="M1545 1090 c-82 -54 -86 -181 -8 -262 52 -54 151 -46 198 16 48 63
27 192 -41 245 -35 28 -108 28 -149 1z m90 -46 c24 -26 65 -120 65 -150 0 -31
-21 -54 -49 -54 -34 0 -53 20 -80 83 -25 59 -27 104 -4 129 22 25 40 23 68 -8z"/>
<path d="M1290 989 c-52 -21 -98 -40 -102 -41 -9 -4 15 -89 25 -89 4 1 14 1
23 1 11 0 14 8 12 32 -2 24 1 33 14 36 23 5 96 -183 80 -208 -5 -9 -7 -23 -2
-30 7 -11 20 -9 69 10 34 12 61 25 61 29 -1 15 -18 32 -30 29 -9 -2 -26 26
-47 78 -47 119 -50 134 -25 134 12 0 23 -9 27 -20 7 -21 22 -25 43 -11 11 7
10 16 -7 50 -12 22 -27 41 -34 40 -6 -1 -55 -18 -107 -40z"/>
<path d="M1920 1005 c0 -5 5 -17 10 -25 5 -8 10 -10 10 -5 0 6 -5 17 -10 25
-5 8 -10 11 -10 5z"/>
<path d="M3113 990 c-58 -12 -95 -33 -132 -75 -26 -30 -31 -44 -31 -87 0 -46
4 -54 43 -93 27 -27 63 -49 102 -63 96 -35 110 -44 113 -79 4 -40 -27 -63 -83
-63 -52 0 -67 11 -80 57 -11 38 -12 38 -59 36 -26 -1 -50 -3 -52 -6 -8 -7 16
-141 27 -152 14 -14 226 -12 276 3 88 26 148 121 123 196 -17 51 -61 85 -156
119 -97 35 -113 51 -98 94 7 21 19 30 46 37 53 13 84 -3 92 -49 7 -36 7 -36
54 -33 l47 3 -3 75 c-2 41 -5 76 -7 78 -8 8 -185 10 -222 2z"/>
<path d="M2030 955 c0 -31 3 -35 25 -35 l25 0 0 -147 c0 -109 -3 -144 -11
-133 -9 12 -10 11 -4 -5 21 -61 77 -200 82 -205 3 -3 3 3 0 12 -6 16 7 18 156
20 l162 3 19 73 c10 40 17 74 15 76 -2 2 -23 7 -46 11 l-42 7 -23 -49 -23 -48
-62 -3 -63 -3 0 196 0 195 29 0 c25 0 29 4 33 35 l4 35 -138 0 -138 0 0 -35z"/>
<path d="M2560 955 c0 -32 2 -35 30 -35 l30 0 0 -195 0 -195 -30 0 c-28 0 -30
-3 -30 -35 l0 -35 140 0 140 0 0 30 c0 26 -5 31 -30 36 l-30 6 0 194 0 194 30
0 c28 0 30 3 30 35 l0 35 -140 0 -140 0 0 -35z"/>
<path d="M3436 944 c-3 -26 -6 -64 -6 -85 l0 -39 49 0 49 0 7 41 c7 41 30 59
76 59 18 0 19 -9 19 -195 0 -186 -1 -195 -19 -195 -37 0 -51 -12 -51 -41 l0
-29 150 0 150 0 0 29 c0 29 -14 41 -51 41 -18 0 -19 9 -19 195 0 186 1 195 19
195 46 0 68 -17 75 -59 l6 -41 50 0 50 0 0 48 c0 26 -3 64 -6 85 l-7 37 -267
0 -267 0 -7 -46z"/>
<path d="M10 899 c0 -49 1 -50 27 -47 20 2 29 10 33 28 4 16 14 26 28 28 22 3
22 1 22 -112 0 -109 -1 -116 -20 -116 -13 0 -20 -7 -20 -20 0 -18 7 -20 85
-20 77 0 85 2 85 19 0 10 -9 21 -20 24 -19 5 -21 12 -18 114 3 104 4 108 26
111 18 3 23 -2 28 -27 6 -26 11 -31 35 -31 28 0 29 2 29 50 l0 50 -160 0 -160
0 0 -51z"/>
<path d="M380 930 c0 -11 7 -20 15 -20 12 0 15 -19 15 -115 0 -96 -3 -115 -15
-115 -8 0 -15 -9 -15 -20 0 -19 5 -21 77 -18 65 3 78 6 81 21 2 12 -3 17 -17
17 -18 0 -21 6 -21 50 l0 50 60 0 60 0 0 -50 c0 -43 -3 -50 -20 -50 -13 0 -20
-7 -20 -20 0 -18 7 -20 80 -20 73 0 80 2 80 20 0 11 -7 20 -15 20 -12 0 -15
19 -15 115 0 96 3 115 15 115 8 0 15 9 15 20 0 18 -7 20 -75 20 -68 0 -75 -2
-75 -20 0 -11 7 -20 15 -20 11 0 15 -12 15 -45 l0 -45 -60 0 -60 0 0 45 c0 38
3 45 20 45 13 0 20 7 20 20 0 18 -7 20 -80 20 -73 0 -80 -2 -80 -20z"/>
<path d="M1970 875 c0 -5 5 -17 10 -25 5 -8 10 -10 10 -5 0 6 -5 17 -10 25 -5
8 -10 11 -10 5z"/>
<path d="M1990 825 c0 -5 5 -17 10 -25 5 -8 10 -10 10 -5 0 6 -5 17 -10 25 -5
8 -10 11 -10 5z"/>
<path d="M1748 719 c-60 -31 -83 -92 -67 -171 14 -62 72 -127 115 -129 71 -3
115 16 145 64 42 66 7 194 -65 238 -39 24 -81 23 -128 -2z m86 -56 c52 -56 73
-173 36 -193 -45 -24 -87 17 -115 113 -15 53 -15 60 -1 82 21 32 49 32 80 -2z"/>
<path d="M2040 695 c0 -5 5 -17 10 -25 5 -8 10 -10 10 -5 0 6 -5 17 -10 25 -5
8 -10 11 -10 5z"/>
<path d="M1403 584 c-55 -23 -61 -28 -53 -45 6 -10 15 -18 21 -16 15 3 94
-204 80 -212 -20 -13 -1 -42 23 -35 61 19 146 65 161 87 40 62 26 160 -32 214
-30 29 -41 33 -86 33 -32 -1 -76 -11 -114 -26z m122 -36 c32 -25 64 -91 65
-130 0 -27 -43 -88 -55 -77 -12 13 -84 212 -79 221 9 15 41 9 69 -14z"/>
</g>
</svg>
